PathFileType	4	(X/Y/Z)	Patient4_TMGait_0pt7_02_left_24.trc.trc
DataRate	CameraRate	NumFrames	NumMarkers	Units	OrigDataRate	OrigDataStartFrame	OrigNumFrames
85.889570552147	85.889570552147	6	33	mm	85.889570552147	89	       141
Frame#	Time	Sacral			L.Shoulder			Chest			R.Shoulder			Neck			R.ASIS			L.ASIS			R.Thigh.Superior			R.Thigh.Lateral			R.Thigh.Inferior			R.Patella			L.Thigh.Superior			L.Thigh.Lateral			L.Thigh.Inferior			L.Patella			L.Shank.Superior			L.Shank.Lateral			L.Shank.Inferior			R.Shank.Superior			R.Shank.Lateral			R.Shank.Inferior			R.Heel			R.Midfoot.Superior			R.Midfoot.Lateral			R.Toe			L.Heel			L.Midfoot.Lateral			L.Midfoot.Superior			L.Toe			L.Elbow			L.Wrist			R.Elbow			R.Wrist			
		X1	Y1	Z1	X2	Y2	Z2	X3	Y3	Z3	X4	Y4	Z4	X5	Y5	Z5	X6	Y6	Z6	X7	Y7	Z7	X8	Y8	Z8	X9	Y9	Z9	X10	Y10	Z10	X11	Y11	Z11	X12	Y12	Z12	X13	Y13	Z13	X14	Y14	Z14	X15	Y15	Z15	X16	Y16	Z16	X17	Y17	Z17	X18	Y18	Z18	X19	Y19	Z19	X20	Y20	Z20	X21	Y21	Z21	X22	Y22	Z22	X23	Y23	Z23	X24	Y24	Z24	X25	Y25	Z25	X26	Y26	Z26	X27	Y27	Z27	X28	Y28	Z28	X29	Y29	Z29	X30	Y30	Z30	X31	Y31	Z31	X32	Y32	Z32	X33	Y33	Z33	

89	28.294571428571	844.537273193692	1006.272217159253	467.087085856953	1031.468163253167	1413.846070769827	254.240171494567	1134.326149401753	1352.557084661929	419.054193227550	1054.877740667380	1443.866243578347	586.882511870232	1037.500849346372	1485.977935033246	403.453526717809	1071.985052533176	937.302800017383	583.626296182010	1049.422770487551	951.872761057172	307.492287974364	1136.470413507522	752.350295041411	554.084608331210	1073.310342764382	635.401385974497	620.058170798317	1156.489322715598	591.271653798828	539.754296101632	1173.091488225433	500.741558687301	550.390813505145	1059.264111379125	728.197870932415	324.260354120986	942.724293618218	634.793316047017	261.051007303782	1012.878056991817	534.590685445886	311.501126468440	994.629844383081	455.749114005573	309.292457061219	930.661056953117	402.574663299135	304.507483747887	792.754906703787	348.962230576167	259.059593888959	791.182851347019	218.657834352449	315.251865064127	1147.207735866308	410.953692577709	559.224017742387	1081.732479039801	306.310552214181	625.294012085900	1126.048470065859	211.179145895767	564.821526081096	997.686235625998	44.285747836964	544.518635155602	1170.798182476124	99.008027909230	573.501792580797	1083.881452884033	37.896991299407	614.921543375576	1291.552038908245	43.634693014234	596.382167794154	606.628809806855	129.727761434653	356.252715283341	670.426295625182	84.062434203835	282.041294438306	772.321795092006	111.195140613218	301.208160722720	866.015495518663	33.722410618815	289.160697907006	1038.719174816215	1073.126499800204	123.103879547343	1290.967071972842	1077.209552953432	154.299780109139	911.947984411604	1147.730599645842	735.686025433941	898.229633160493	884.942229341348	742.668100924858	
90	28.306214285714	845.941386610549	1007.814633450434	470.478431174623	1033.033737763551	1414.539569469932	256.436854296459	1136.564251216958	1353.448105409706	420.930923307618	1058.013767330934	1445.304513771025	588.796271620579	1039.583346041479	1486.895032133143	405.430201786239	1073.514024913020	938.249191712966	586.525279730667	1050.490673514451	952.631508305231	310.110004624842	1136.126165318577	751.409431931132	559.085964342001	1069.807615943211	635.064303464679	622.773079298766	1153.737228833317	590.480657495174	543.306210458148	1169.007875471528	499.903264615308	552.829298760723	1064.774866853542	729.640929279497	326.856905968484	951.327983449724	633.738689240450	263.293650672170	1024.049502969758	534.584500348174	313.865045403896	1006.386657096630	454.474034112120	310.726636183262	939.935867974190	402.062317679300	305.991964340422	800.240755107573	353.651693800777	260.225092879916	794.124042625364	223.329456213631	315.527830487383	1142.395057934062	410.390586065558	561.083317476285	1075.889383104981	306.060343928833	626.520567975647	1119.372646410969	210.797298215626	565.618541710953	989.650696314307	44.392203135485	544.624528853235	1162.839484628730	98.944121311503	573.775133981557	1075.790867915179	37.902229793716	615.031261214917	1283.507318223760	43.156505696498	596.700950562641	606.599540367735	143.883834316130	355.910131608454	667.567261778192	94.311032367964	281.839043869546	770.763488345680	115.179713411228	300.888301223423	858.418992341308	32.339110766005	289.092410381584	1031.306689737487	1072.012949529972	128.549328934028	1284.061892843805	1065.138478297397	157.527554752966	918.937918959530	1147.337813382621	738.899749313725	915.150737639277	884.187788181410	743.136200225842	
91	28.317857142857	847.096683973602	1009.067520823624	473.728908540476	1034.208695816184	1415.057327234137	258.629788941838	1138.628373018074	1354.028894662958	422.657891536723	1061.202692521488	1446.338881104326	590.700498569685	1041.506730217276	1487.564486986309	407.467295931502	1074.841684217988	938.893366014697	589.195875754254	1051.523602791294	953.295057413728	312.746868284013	1135.563935420146	750.293859353328	563.867801140486	1066.314994249104	634.691670484796	625.352772796270	1150.852338107086	589.638090742868	546.610365739347	1164.792668410908	499.028422213753	555.156707691027	1070.682847051863	731.162040084477	329.587987990061	960.902222188932	632.497252129565	265.667345031145	1036.181878197377	534.697493689007	316.799572314186	1019.200879498606	453.296288786455	312.953264193024	950.394707445164	401.525028624775	308.033192637386	809.212043531428	358.453929408454	261.545076758778	798.174591087807	228.429759550168	316.185501848985	1137.483183031822	409.768541674126	562.867575620140	1069.991919108872	305.750741762286	627.696404459906	1112.678688065741	210.370855596604	566.399535186066	981.598806870068	44.507322782939	544.734913786308	1154.899754917026	98.824149505583	574.042580499068	1067.688225526145	37.884714265625	615.143698574493	1275.459052768000	42.603283888361	596.980732019787	608.075134387278	159.039514688039	355.657667148907	666.014203828363	105.777004960729	281.676263028943	770.160806550145	120.043181639281	300.866491004425	851.333081308681	30.944506218141	289.026117858418	1023.961408988554	1070.998519400456	134.013877965947	1276.699134052832	1051.677644153801	160.655801307077	926.157951571879	1146.558089622954	742.178460981936	933.079830635266	883.477875951279	743.589019545017	
92	28.329500000000	847.999711166605	1010.028765677472	476.821160143862	1035.003948879500	1415.424165964777	260.788358100627	1140.492308137198	1354.295440141026	424.206258736903	1064.410614317052	1446.954303045391	592.573607867506	1043.285487332866	1488.001859563053	409.538560246813	1075.957581224440	939.287742067952	591.638131703032	1052.455387349260	953.834592258214	315.373471885967	1134.832965219747	749.123194908410	568.181587265451	1063.037084109139	634.360800233719	627.756601407807	1147.918779013606	588.788113248301	549.543908379031	1160.538400394515	498.137579285916	557.316735197474	1076.829096759086	732.846784436967	332.526051479570	971.318041443979	631.227789592015	268.175091172883	1049.085478396900	535.087562311635	320.308916514139	1032.924039191254	452.373711000414	315.935278373414	961.926970762498	401.094877965224	310.599960652236	819.566583954989	363.395561666742	263.037000709686	803.365076097673	233.961083153076	317.211664049218	1132.545168049294	409.105331016131	564.538989941277	1064.110644400080	305.416129059124	628.813542372777	1105.994445355751	209.918617617370	567.146192617658	973.534590764937	44.637638244613	544.861917042035	1146.971235749573	98.673365703265	574.310029303442	1059.577927096980	37.860772812295	615.270257872049	1267.406039750118	42.025953093423	597.233155642675	611.143015350404	174.895580369740	355.504633415169	665.971808567866	118.241556053847	281.567042958884	770.694146458228	125.785685106223	301.143813748408	845.081684888031	29.751271722121	288.998416086437	1016.784609265219	1070.054389214411	139.488161165606	1268.754672434930	1036.847499954442	163.677551994327	933.627461613517	1145.343785605963	745.471668867270	951.927901201637	882.867932752846	743.994424855209	
93	28.341142857143	848.663864459368	1010.716303916315	479.755798628175	1035.439122488330	1415.674173600126	262.881342850822	1142.131089513355	1354.272568225686	425.553962257501	1067.586929208366	1447.167763578696	594.391372056233	1044.929799439784	1488.236553905422	411.609648551806	1076.865038404804	939.496127813936	593.850952703278	1053.207488828702	954.221945886787	317.942835065775	1133.969889610177	747.982788422572	571.849036962912	1060.080430696166	634.111485794684	629.950301340257	1144.979870845945	587.954017711251	552.029554757661	1156.297502507278	497.241039576653	559.252812298426	1083.044507096819	734.787469764166	335.721784176356	982.396806808559	630.109049886330	270.802160374061	1062.537775342164	535.917624544025	324.338545653422	1047.381892484262	451.873358941977	319.560279751250	974.392614405362	400.917456397310	313.611181588542	831.150551125628	368.492352697857	264.710740978972	809.719231925621	239.886609843635	318.572653415715	1127.619534852816	408.414787263878	566.060911858185	1058.282636115674	305.081751365376	629.856843241045	1099.330737775186	209.456929787237	567.836970730062	965.460826300167	44.783495585150	545.010806512369	1139.042701206447	98.513642046690	574.578077014740	1051.462428222680	37.842444771931	615.416454695931	1259.345520433150	41.471100340031	597.469721301048	615.839386823225	191.036844887392	355.468727922423	667.621371929451	131.368606690281	281.536453608862	772.556475137194	132.328025976433	301.714740082876	840.072211994533	29.015473885418	289.056840925810	1009.868499000440	1069.158122747173	144.962435793229	1260.080009177795	1020.704082656033	166.594311823545	941.380873132314	1143.665459960034	748.721830527079	971.634231541120	882.423958527927	744.289817382845	
94	28.352785714286	849.114678224904	1011.168233974077	482.547391999050	1035.539479121219	1415.845651993791	264.880647762269	1143.524404692189	1354.010000706309	426.688326351032	1070.671857969825	1447.024661756831	596.130110535496	1046.443873803406	1488.307863442191	413.643165828779	1077.579042339812	939.583554634842	595.826934189412	1053.697879803863	954.436845711883	320.393765885466	1132.994371723414	746.921321584131	574.778303963893	1057.457575237876	633.952019304212	631.908849679583	1142.039899774551	587.142315132776	554.038011498621	1152.081515307443	496.342382336931	560.916986449683	1089.166133450158	737.071509584460	339.189129201054	993.920886079393	629.319653169114	273.516316544652	1076.300764581198	537.338867588079	328.775912611171	1062.383917104456	451.956958143179	323.656400089257	987.632728688614	401.136710188903	316.946011603091	843.771425738258	373.738764344103	266.565847007282	817.252056809222	246.123302669841	320.219395667827	1122.711416016708	407.708150086192	567.402257122709	1052.513367559827	304.764492319778	630.808654232003	1092.683194243803	208.999576093709	568.450686422477	957.378526077729	44.941300869791	545.181129379785	1131.102673785892	98.361516528589	574.842982211101	1043.342250107922	37.837275355531	615.582405029850	1251.274219239247	40.974269698494	597.699981679945	622.144080658050	206.953477963865	355.576106679635	671.104193164621	144.721798324338	281.619128069881	775.936798472645	139.511145047174	302.567981909752	836.777406873146	28.998134825145	289.252538960170	1003.291965455710	1068.294391984809	150.423867123687	1250.507436784022	1003.356615059192	169.417057683989	949.462123081827	1141.519708344338	751.867045330677	992.158502616328	882.230298202444	744.387225014590	
